<?xml version="1.0" standalone="no"?><!DOCTYPE svg PUBLIC "-//W3C//DTD SVG 1.1//EN" "http://www.w3.org/Graphics/SVG/1.1/DTD/svg11.dtd"><svg t="1732516485450" class="icon" viewBox="0 0 2008 1024" version="1.1" xmlns="http://www.w3.org/2000/svg" p-id="1451" xmlns:xlink="http://www.w3.org/1999/xlink" width="392.1875" height="200"><path d="M355.95827101 721.454545c-210.599106-73.63338301-191.14158-259.052161-148.41132601-381.520119-228.530551-14.49776499-259.052161 356.721311-128.57228 526.497765 117.126677 152.226528 431.499255 196.101341 616.536512 115.982116 239.213115-103.39195199 689.406855-217.847988 1311.66617-48.453055-275.076006-226.241431-679.105812-383.80924-943.499255-274.31296599-194.57526099 80.500745-360.154993 27.850969-457.442623-97.66915001-72.10730299-93.472429-43.49329399-276.602086 45.78241499-326.581222 115.982116-64.85842 291.862891-3.815201 304.07153501 122.086438C877.496274 299.111773 813.782414 259.433681 742.056632 298.348733c-109.877794 59.135618-114.456036 194.193741 16.023845 280.79880801 130.098361 86.60506701 341.460507-4.578241 403.266766-121.70491801 52.268256-99.576751-13.734724-239.213115-134.295082-355.576751-120.56035799-116.363636-349.853949-139.254844-553.967213-23.654248-231.201192 130.861401-287.28465 483.385991-117.508197 643.624442z" fill="#ea9518" p-id="1452"></path></svg>